<svg width="2505" height="500" viewBox="0 0 2505 500" fill="none" xmlns="http://www.w3.org/2000/svg">
<g clip-path="url(#clip0_6_47)">
<path fill-rule="evenodd" clip-rule="evenodd" d="M36 0H464C483.9 0 500 16.1 500 36V464C500 483.9 483.9 500 464 500H36C16.1 500 0 483.9 0 464V36C0 16.1 16.1 0 36 0Z" fill="#03A9F4"/>
<g filter="url(#filter0_d_6_47)">
<path fill-rule="evenodd" clip-rule="evenodd" d="M257.5 420L286.6 391H313.4C315.5 396.8 321 401 327.6 401C335.9 401 342.6 394.3 342.6 386C342.6 377.7 335.9 371 327.6 371C321.1 371 315.5 375.2 313.4 381H282.4L255.4 407.9V375L287.5 342.9H339.4C341.5 348.7 347 352.9 353.6 352.9C361.9 352.9 368.6 346.2 368.6 337.9C368.6 329.6 361.9 322.9 353.6 322.9C347.1 322.9 341.5 327.1 339.4 332.9H297.5L327.5 303V278L349.1 256.5C351.1 257.4 353.3 258 355.6 258C363.9 258 370.6 251.3 370.6 243C370.6 234.7 363.9 228 355.6 228C347.3 228 340.6 234.7 340.6 243C340.6 245.3 341.1 247.5 342.1 249.5L327.6 264V218.2C333.4 216.1 337.6 210.6 337.6 204.1C337.6 195.8 330.9 189.1 322.6 189.1C314.3 189.1 307.6 195.8 307.6 204.1C307.6 210.6 311.8 216.2 317.6 218.2V264L303.1 249.5C304 247.5 304.6 245.3 304.6 243C304.6 234.7 297.9 228 289.6 228C281.3 228 274.6 234.7 274.6 243C274.6 251.3 281.3 258 289.6 258C291.9 258 294.1 257.5 296.1 256.5L317.7 278V298.9L290.7 325.9V306.1C296.5 304 300.7 298.5 300.7 292C300.7 283.7 294 277 285.7 277C277.4 277 270.7 283.7 270.7 292C270.7 298.5 274.9 304.1 280.7 306.1V335.9L255.7 360.9V214.1L276.3 193.6C278.3 194.5 280.5 195.1 282.8 195.1C291.1 195.1 297.8 188.4 297.8 180.1C297.8 171.8 291.1 165.1 282.8 165.1C274.5 165.1 267.8 171.8 267.8 180.1C267.8 182.4 268.3 184.6 269.3 186.6L250.8 205.1L232.3 186.6C233.2 184.6 233.8 182.4 233.8 180.1C233.8 171.8 227.1 165.1 218.8 165.1C210.5 165.1 203.8 171.8 203.8 180.1C203.8 188.4 210.5 195.1 218.8 195.1C221.1 195.1 223.3 194.6 225.3 193.6L245.9 214.1V319L209.8 283V254.2C215.6 252.1 219.8 246.6 219.8 240.1C219.8 231.8 213.1 225.1 204.8 225.1C196.5 225.1 189.8 231.8 189.8 240.1C189.8 246.6 194 252.2 199.8 254.2V273L171.7 245V217.2C177.5 215.1 181.7 209.6 181.7 203.1C181.7 194.8 175 188.1 166.7 188.1C158.4 188.1 151.7 194.8 151.7 203.1C151.7 209.6 155.9 215.2 161.7 217.2V249.1L192.7 280H174.9C172.8 274.2 167.3 270 160.7 270C152.4 270 145.7 276.7 145.7 285C145.7 293.3 152.4 300 160.7 300C167.2 300 172.8 295.8 174.9 290H202.7L245.8 333.1V408L222.8 385V356.2C228.6 354.1 232.8 348.6 232.8 342.1C232.8 333.8 226.1 327.1 217.8 327.1C209.5 327.1 202.8 333.8 202.8 342.1C202.8 348.6 207 354.2 212.8 356.2V375L179.3 341.5C180.2 339.5 180.8 337.3 180.8 335C180.8 326.7 174.1 320 165.8 320C157.5 320 150.8 326.7 150.8 335C150.8 343.3 157.5 350 165.8 350C168.1 350 170.3 349.5 172.3 348.5L205.8 382H188C185.9 376.2 180.4 372 173.8 372C165.5 372 158.8 378.7 158.8 387C158.8 395.3 165.5 402 173.8 402C180.3 402 185.9 397.8 188 392H215.8L243.9 420H104.5C100.2 420 96.7 416.5 96.7 412.2V279H61.3C56.1 279 52 274.8 52 269.7C52 267.2 53 264.9 54.7 263.1L242.2 73.4C246.7 68.8 254.1 68.8 258.7 73.3L258.8 73.4L356.7 172V153.8C356.7 149.5 360.2 146 364.5 146H397C401.3 146 404.8 149.5 404.8 153.8V220.7L446.4 263.1C450 266.8 450 272.7 446.3 276.3C444.6 278 442.2 279 439.8 279H404.9V412.2C404.9 416.5 401.4 420 397.1 420H257.5ZM173.3 393C170 393 167.3 390.3 167.3 387C167.3 383.7 170 381 173.3 381C176.6 381 179.3 383.7 179.3 387C179.3 390.3 176.6 393 173.3 393ZM217.4 348C214.1 348 211.4 345.3 211.4 342C211.4 338.7 214.1 336 217.4 336C220.7 336 223.4 338.7 223.4 342C223.4 345.3 220.7 348 217.4 348ZM165.3 341C162 341 159.3 338.3 159.3 335C159.3 331.7 162 329 165.3 329C168.6 329 171.3 331.7 171.3 335C171.3 338.3 168.6 341 165.3 341ZM160.3 291C157 291 154.3 288.3 154.3 285C154.3 281.7 157 279 160.3 279C163.6 279 166.3 281.7 166.3 285C166.3 288.3 163.6 291 160.3 291ZM285.5 298C282.2 298 279.5 295.3 279.5 292C279.5 288.7 282.2 286 285.5 286C288.8 286 291.5 288.7 291.5 292C291.5 295.3 288.8 298 285.5 298ZM353.6 344C350.3 344 347.6 341.3 347.6 338C347.6 334.7 350.3 332 353.6 332C356.9 332 359.6 334.7 359.6 338C359.6 341.3 356.9 344 353.6 344ZM327.6 392C324.3 392 321.6 389.3 321.6 386C321.6 382.7 324.3 380 327.6 380C330.9 380 333.6 382.7 333.6 386C333.6 389.3 330.9 392 327.6 392ZM355.6 249C352.3 249 349.6 246.3 349.6 243C349.6 239.7 352.3 237 355.6 237C358.9 237 361.6 239.7 361.6 243C361.6 246.3 358.9 249 355.6 249ZM322.6 210C319.3 210 316.6 207.3 316.6 204C316.6 200.7 319.3 198 322.6 198C325.9 198 328.6 200.7 328.6 204C328.6 207.3 325.9 210 322.6 210ZM282.5 186C279.2 186 276.5 183.3 276.5 180C276.5 176.7 279.2 174 282.5 174C285.8 174 288.5 176.7 288.5 180C288.5 183.3 285.8 186 282.5 186ZM218.4 186C215.1 186 212.4 183.3 212.4 180C212.4 176.7 215.1 174 218.4 174C221.7 174 224.4 176.7 224.4 180C224.4 183.3 221.7 186 218.4 186ZM166.3 209C163 209 160.3 206.3 160.3 203C160.3 199.7 163 197 166.3 197C169.6 197 172.3 199.7 172.3 203C172.3 206.3 169.6 209 166.3 209ZM204.3 246C201 246 198.3 243.3 198.3 240C198.3 236.7 201 234 204.3 234C207.6 234 210.3 236.7 210.3 240C210.4 243.3 207.7 246 204.3 246ZM289.5 249C286.2 249 283.5 246.3 283.5 243C283.5 239.7 286.2 237 289.5 237C292.8 237 295.5 239.7 295.5 243C295.5 246.3 292.8 249 289.5 249Z" fill="white"/>
</g>
</g>
<path d="M766.856 345.556H741.527V257.219H645.198V345.556H620V154.444H645.198V236.612H741.527V154.444H766.856V345.556Z" fill="#212121"/>
<path d="M801.372 273.233C801.372 259.319 804.084 246.806 809.508 235.693C815.02 224.58 822.632 216.004 832.344 209.966C842.143 203.928 853.298 200.909 865.81 200.909C885.145 200.909 900.763 207.604 912.662 220.992C924.648 234.38 930.641 252.188 930.641 274.414V276.12C930.641 289.946 927.973 302.372 922.636 313.398C917.386 324.336 909.818 332.868 899.932 338.993C890.133 345.119 878.846 348.181 866.072 348.181C846.824 348.181 831.206 341.487 819.22 328.099C807.321 314.71 801.372 296.991 801.372 274.939V273.233ZM825.782 276.12C825.782 291.871 829.413 304.516 836.675 314.054C844.024 323.592 853.823 328.361 866.072 328.361C878.409 328.361 888.208 323.548 895.47 313.923C902.731 304.21 906.362 290.646 906.362 273.233C906.362 257.657 902.644 245.056 895.207 235.43C887.858 225.717 878.059 220.861 865.81 220.861C853.823 220.861 844.155 225.63 836.806 235.168C829.457 244.706 825.782 258.357 825.782 276.12Z" fill="#212121"/>
<path d="M983.924 203.535L984.581 219.286C994.992 207.035 1009.03 200.909 1026.71 200.909C1046.57 200.909 1060.09 208.522 1067.26 223.748C1071.99 216.923 1078.11 211.41 1085.63 207.21C1093.25 203.01 1102.21 200.909 1112.54 200.909C1143.69 200.909 1159.52 217.404 1160.05 250.394V345.556H1135.77V251.838C1135.77 241.687 1133.45 234.118 1128.81 229.13C1124.17 224.055 1116.39 221.517 1105.45 221.517C1096.44 221.517 1088.96 224.23 1083.01 229.655C1077.06 234.993 1073.6 242.212 1072.64 251.313V345.556H1048.23V252.494C1048.23 231.843 1038.13 221.517 1017.92 221.517C1001.99 221.517 991.099 228.299 985.237 241.862V345.556H960.958V203.535H983.924Z" fill="#212121"/>
<path d="M1255.72 348.181C1236.47 348.181 1220.81 341.881 1208.74 329.28C1196.66 316.592 1190.62 299.659 1190.62 278.483V274.02C1190.62 259.932 1193.29 247.375 1198.63 236.349C1204.06 225.236 1211.58 216.573 1221.2 210.36C1230.92 204.06 1241.41 200.909 1252.7 200.909C1271.16 200.909 1285.51 206.991 1295.75 219.154C1305.98 231.318 1311.1 248.731 1311.1 271.395V281.502H1214.9C1215.25 295.503 1219.32 306.835 1227.11 315.498C1234.98 324.074 1244.96 328.361 1257.03 328.361C1265.61 328.361 1272.87 326.611 1278.82 323.111C1284.77 319.611 1289.97 314.973 1294.43 309.198L1309.26 320.748C1297.37 339.037 1279.52 348.181 1255.72 348.181ZM1252.7 220.861C1242.9 220.861 1234.68 224.448 1228.03 231.624C1221.38 238.712 1217.27 248.687 1215.69 261.551H1286.82V259.713C1286.12 247.375 1282.8 237.837 1276.85 231.099C1270.9 224.273 1262.85 220.861 1252.7 220.861Z" fill="#212121"/>
<path d="M1515.31 295.678H1435.25L1417.27 345.556H1391.29L1464.26 154.444H1486.31L1559.41 345.556H1533.55L1515.31 295.678ZM1442.87 274.939H1507.83L1475.28 185.552L1442.87 274.939Z" fill="#212121"/>
<path d="M1664 307.885C1664 301.322 1661.51 296.247 1656.52 292.659C1651.62 288.984 1643 285.834 1630.67 283.208C1618.42 280.583 1608.66 277.433 1601.4 273.758C1594.23 270.083 1588.89 265.707 1585.39 260.632C1581.98 255.557 1580.27 249.519 1580.27 242.518C1580.27 230.88 1585.17 221.036 1594.97 212.985C1604.86 204.935 1617.46 200.909 1632.77 200.909C1648.87 200.909 1661.9 205.066 1671.88 213.379C1681.94 221.692 1686.97 232.324 1686.97 245.275H1662.56C1662.56 238.624 1659.72 232.893 1654.03 228.08C1648.43 223.267 1641.34 220.861 1632.77 220.861C1623.93 220.861 1617.02 222.786 1612.03 226.636C1607.04 230.486 1604.55 235.518 1604.55 241.731C1604.55 247.594 1606.87 252.013 1611.51 254.988C1616.14 257.963 1624.5 260.807 1636.57 263.52C1648.73 266.232 1658.58 269.47 1666.1 273.233C1673.63 276.995 1679.18 281.546 1682.77 286.884C1686.44 292.134 1688.28 298.566 1688.28 306.179C1688.28 318.867 1683.21 329.061 1673.06 336.762C1662.91 344.375 1649.74 348.181 1633.55 348.181C1622.18 348.181 1612.12 346.169 1603.37 342.143C1594.62 338.118 1587.75 332.518 1582.77 325.342C1577.87 318.079 1575.42 310.248 1575.42 301.847H1599.7C1600.13 309.985 1603.37 316.461 1609.41 321.273C1615.53 325.999 1623.58 328.361 1633.55 328.361C1642.74 328.361 1650.09 326.524 1655.6 322.848C1661.2 319.086 1664 314.098 1664 307.885Z" fill="#212121"/>
<path d="M1802.59 307.885C1802.59 301.322 1800.1 296.247 1795.11 292.659C1790.21 288.984 1781.59 285.834 1769.26 283.208C1757.01 280.583 1747.25 277.433 1739.99 273.758C1732.81 270.083 1727.48 265.707 1723.98 260.632C1720.57 255.557 1718.86 249.519 1718.86 242.518C1718.86 230.88 1723.76 221.036 1733.56 212.985C1743.45 204.935 1756.04 200.909 1771.36 200.909C1787.45 200.909 1800.49 205.066 1810.46 213.379C1820.53 221.692 1825.56 232.324 1825.56 245.275H1801.15C1801.15 238.624 1798.3 232.893 1792.62 228.08C1787.02 223.267 1779.93 220.861 1771.36 220.861C1762.52 220.861 1755.61 222.786 1750.62 226.636C1745.63 230.486 1743.14 235.518 1743.14 241.731C1743.14 247.594 1745.46 252.013 1750.09 254.988C1754.73 257.963 1763.09 260.807 1775.16 263.52C1787.32 266.232 1797.17 269.47 1804.69 273.233C1812.21 276.995 1817.77 281.546 1821.36 286.884C1825.03 292.134 1826.87 298.566 1826.87 306.179C1826.87 318.867 1821.79 329.061 1811.65 336.762C1801.5 344.375 1788.33 348.181 1772.14 348.181C1760.77 348.181 1750.71 346.169 1741.96 342.143C1733.21 338.118 1726.34 332.518 1721.35 325.342C1716.45 318.079 1714 310.248 1714 301.847H1738.28C1738.72 309.985 1741.96 316.461 1747.99 321.273C1754.12 325.999 1762.17 328.361 1772.14 328.361C1781.33 328.361 1788.68 326.524 1794.19 322.848C1799.79 319.086 1802.59 314.098 1802.59 307.885Z" fill="#212121"/>
<path d="M1884.88 345.556H1860.6V203.535H1884.88V345.556ZM1858.63 165.863C1858.63 161.926 1859.81 158.6 1862.17 155.888C1864.62 153.175 1868.21 151.819 1872.93 151.819C1877.66 151.819 1881.25 153.175 1883.7 155.888C1886.15 158.6 1887.37 161.926 1887.37 165.863C1887.37 169.801 1886.15 173.083 1883.7 175.708C1881.25 178.333 1877.66 179.646 1872.93 179.646C1868.21 179.646 1864.62 178.333 1862.17 175.708C1859.81 173.083 1858.63 169.801 1858.63 165.863Z" fill="#212121"/>
<path d="M2006.53 307.885C2006.53 301.322 2004.04 296.247 1999.05 292.659C1994.15 288.984 1985.54 285.834 1973.2 283.208C1960.95 280.583 1951.2 277.433 1943.93 273.758C1936.76 270.083 1931.42 265.707 1927.92 260.632C1924.51 255.557 1922.8 249.519 1922.8 242.518C1922.8 230.88 1927.7 221.036 1937.5 212.985C1947.39 204.935 1959.99 200.909 1975.3 200.909C1991.4 200.909 2004.43 205.066 2014.41 213.379C2024.47 221.692 2029.5 232.324 2029.5 245.275H2005.09C2005.09 238.624 2002.25 232.893 1996.56 228.08C1990.96 223.267 1983.87 220.861 1975.3 220.861C1966.46 220.861 1959.55 222.786 1954.56 226.636C1949.58 230.486 1947.08 235.518 1947.08 241.731C1947.08 247.594 1949.4 252.013 1954.04 254.988C1958.68 257.963 1967.03 260.807 1979.11 263.52C1991.27 266.232 2001.11 269.47 2008.63 273.233C2016.16 276.995 2021.71 281.546 2025.3 286.884C2028.98 292.134 2030.81 298.566 2030.81 306.179C2030.81 318.867 2025.74 329.061 2015.59 336.762C2005.44 344.375 1992.27 348.181 1976.09 348.181C1964.71 348.181 1954.65 346.169 1945.9 342.143C1937.15 338.118 1930.29 332.518 1925.3 325.342C1920.4 318.079 1917.95 310.248 1917.95 301.847H1942.23C1942.67 309.985 1945.9 316.461 1951.94 321.273C1958.06 325.999 1966.11 328.361 1976.09 328.361C1985.27 328.361 1992.62 326.524 1998.14 322.848C2003.73 319.086 2006.53 314.098 2006.53 307.885Z" fill="#212121"/>
<path d="M2095.38 169.145V203.535H2121.89V222.304H2095.38V310.379C2095.38 316.067 2096.56 320.355 2098.93 323.242C2101.29 326.042 2105.31 327.442 2111 327.442C2113.8 327.442 2117.65 326.917 2122.55 325.867V345.556C2116.16 347.306 2109.95 348.181 2103.91 348.181C2093.06 348.181 2084.88 344.9 2079.37 338.337C2073.86 331.774 2071.1 322.455 2071.1 310.379V222.304H2045.25V203.535H2071.1V169.145H2095.38Z" fill="#212121"/>
<path d="M2238.04 345.556C2236.64 342.756 2235.5 337.768 2234.63 330.593C2223.34 342.318 2209.87 348.181 2194.21 348.181C2180.21 348.181 2168.7 344.244 2159.69 336.368C2150.77 328.405 2146.3 318.342 2146.3 306.179C2146.3 291.39 2151.9 279.927 2163.1 271.789C2174.39 263.563 2190.22 259.451 2210.61 259.451H2234.23V248.294C2234.23 239.806 2231.7 233.068 2226.62 228.08C2221.55 223.005 2214.07 220.467 2204.18 220.467C2195.52 220.467 2188.26 222.655 2182.39 227.03C2176.53 231.405 2173.6 236.699 2173.6 242.912H2149.19C2149.19 235.824 2151.68 228.999 2156.67 222.436C2161.75 215.785 2168.57 210.535 2177.14 206.685C2185.81 202.834 2195.3 200.909 2205.62 200.909C2221.98 200.909 2234.8 205.022 2244.08 213.248C2253.35 221.386 2258.16 232.63 2258.51 246.981V312.348C2258.51 325.386 2260.17 335.756 2263.5 343.456V345.556H2238.04ZM2197.75 327.049C2205.36 327.049 2212.58 325.08 2219.4 321.142C2226.23 317.204 2231.17 312.085 2234.23 305.785V276.645H2215.2C2185.46 276.645 2170.58 285.352 2170.58 302.766C2170.58 310.379 2173.12 316.329 2178.19 320.617C2183.27 324.905 2189.79 327.049 2197.75 327.049Z" fill="#212121"/>
<path d="M2319.54 203.535L2320.33 221.386C2331.17 207.735 2345.35 200.909 2362.85 200.909C2392.86 200.909 2407.99 217.842 2408.26 251.706V345.556H2383.98V251.575C2383.89 241.337 2381.53 233.768 2376.89 228.867C2372.34 223.967 2365.21 221.517 2355.5 221.517C2347.62 221.517 2340.71 223.617 2334.76 227.817C2328.81 232.018 2324.18 237.53 2320.85 244.356V345.556H2296.57V203.535H2319.54Z" fill="#212121"/>
<path d="M2477.81 169.145V203.535H2504.32V222.304H2477.81V310.379C2477.81 316.067 2478.99 320.355 2481.36 323.242C2483.72 326.042 2487.74 327.442 2493.43 327.442C2496.23 327.442 2500.08 326.917 2504.98 325.867V345.556C2498.59 347.306 2492.38 348.181 2486.34 348.181C2475.49 348.181 2467.31 344.9 2461.8 338.337C2456.29 331.774 2453.53 322.455 2453.53 310.379V222.304H2427.68V203.535H2453.53V169.145H2477.81Z" fill="#212121"/>
<defs>
<filter id="filter0_d_6_47" x="16" y="50.9374" width="469.088" height="422.063" filterUnits="userSpaceOnUse" color-interpolation-filters="sRGB">
<feFlood flood-opacity="0" result="BackgroundImageFix"/>
<feColorMatrix in="SourceAlpha" type="matrix" values="0 0 0 0 0 0 0 0 0 0 0 0 0 0 0 0 0 0 127 0" result="hardAlpha"/>
<feOffset dy="17"/>
<feGaussianBlur stdDeviation="18"/>
<feComposite in2="hardAlpha" operator="out"/>
<feColorMatrix type="matrix" values="0 0 0 0 0 0 0 0 0 0 0 0 0 0 0 0 0 0 0.2 0"/>
<feBlend mode="normal" in2="BackgroundImageFix" result="effect1_dropShadow_6_47"/>
<feBlend mode="normal" in="SourceGraphic" in2="effect1_dropShadow_6_47" result="shape"/>
</filter>
<clipPath id="clip0_6_47">
<rect width="500" height="500" fill="white"/>
</clipPath>
</defs>
</svg>
