<svg width="2506" height="500" viewBox="0 0 2506 500" fill="none" xmlns="http://www.w3.org/2000/svg">
<g clip-path="url(#clip0_1207_56)">
<path fill-rule="evenodd" clip-rule="evenodd" d="M464.936 12H36.9355C23.663 12 12.9355 22.7274 12.9355 36V464C12.9355 477.273 23.663 488 36.9355 488H464.936C478.208 488 488.936 477.273 488.936 464V36C488.936 22.7274 478.208 12 464.936 12ZM464.936 0H36.9355C17.0355 0 0.935547 16.1 0.935547 36V464C0.935547 483.9 17.0355 500 36.9355 500H464.936C484.836 500 500.936 483.9 500.936 464V36C500.936 16.1 484.836 0 464.936 0Z" fill="white"/>
<path fill-rule="evenodd" clip-rule="evenodd" d="M258.436 420L287.536 391H314.336C316.436 396.8 321.936 401 328.536 401C336.836 401 343.536 394.3 343.536 386C343.536 377.7 336.836 371 328.536 371C322.036 371 316.436 375.2 314.336 381H283.336L256.336 407.9V375L288.436 342.9H340.336C342.436 348.7 347.936 352.9 354.536 352.9C362.836 352.9 369.536 346.2 369.536 337.9C369.536 329.6 362.836 322.9 354.536 322.9C348.036 322.9 342.436 327.1 340.336 332.9H298.436L328.436 303V278L350.036 256.5C352.036 257.4 354.236 258 356.536 258C364.836 258 371.536 251.3 371.536 243C371.536 234.7 364.836 228 356.536 228C348.236 228 341.536 234.7 341.536 243C341.536 245.3 342.036 247.5 343.036 249.5L328.536 264V218.2C334.336 216.1 338.536 210.6 338.536 204.1C338.536 195.8 331.836 189.1 323.536 189.1C315.236 189.1 308.536 195.8 308.536 204.1C308.536 210.6 312.736 216.2 318.536 218.2V264L304.036 249.5C304.936 247.5 305.536 245.3 305.536 243C305.536 234.7 298.836 228 290.536 228C282.236 228 275.536 234.7 275.536 243C275.536 251.3 282.236 258 290.536 258C292.836 258 295.036 257.5 297.036 256.5L318.636 278V298.9L291.636 325.9V306.1C297.436 304 301.636 298.5 301.636 292C301.636 283.7 294.936 277 286.636 277C278.336 277 271.636 283.7 271.636 292C271.636 298.5 275.836 304.1 281.636 306.1V335.9L256.636 360.9V214.1L277.236 193.6C279.236 194.5 281.436 195.1 283.736 195.1C292.036 195.1 298.736 188.4 298.736 180.1C298.736 171.8 292.036 165.1 283.736 165.1C275.436 165.1 268.736 171.8 268.736 180.1C268.736 182.4 269.236 184.6 270.236 186.6L251.736 205.1L233.236 186.6C234.136 184.6 234.736 182.4 234.736 180.1C234.736 171.8 228.036 165.1 219.736 165.1C211.436 165.1 204.736 171.8 204.736 180.1C204.736 188.4 211.436 195.1 219.736 195.1C222.036 195.1 224.236 194.6 226.236 193.6L246.836 214.1V319L210.736 283V254.2C216.536 252.1 220.736 246.6 220.736 240.1C220.736 231.8 214.036 225.1 205.736 225.1C197.436 225.1 190.736 231.8 190.736 240.1C190.736 246.6 194.936 252.2 200.736 254.2V273L172.636 245V217.2C178.436 215.1 182.636 209.6 182.636 203.1C182.636 194.8 175.936 188.1 167.636 188.1C159.336 188.1 152.636 194.8 152.636 203.1C152.636 209.6 156.836 215.2 162.636 217.2V249.1L193.636 280H175.836C173.736 274.2 168.236 270 161.636 270C153.336 270 146.636 276.7 146.636 285C146.636 293.3 153.336 300 161.636 300C168.136 300 173.736 295.8 175.836 290H203.636L246.736 333.1V408L223.736 385V356.2C229.536 354.1 233.736 348.6 233.736 342.1C233.736 333.8 227.036 327.1 218.736 327.1C210.436 327.1 203.736 333.8 203.736 342.1C203.736 348.6 207.936 354.2 213.736 356.2V375L180.236 341.5C181.136 339.5 181.736 337.3 181.736 335C181.736 326.7 175.036 320 166.736 320C158.436 320 151.736 326.7 151.736 335C151.736 343.3 158.436 350 166.736 350C169.036 350 171.236 349.5 173.236 348.5L206.736 382H188.936C186.836 376.2 181.336 372 174.736 372C166.436 372 159.736 378.7 159.736 387C159.736 395.3 166.436 402 174.736 402C181.236 402 186.836 397.8 188.936 392H216.736L244.836 420H105.436C101.136 420 97.6355 416.5 97.6355 412.2V279H62.2355C57.0355 279 52.9355 274.8 52.9355 269.7C52.9355 267.2 53.9355 264.9 55.6355 263.1L243.136 73.4C247.636 68.8 255.036 68.8 259.636 73.3L259.736 73.4L357.636 172V153.8C357.636 149.5 361.136 146 365.436 146H397.936C402.236 146 405.736 149.5 405.736 153.8V220.7L447.336 263.1C450.936 266.8 450.936 272.7 447.236 276.3C445.536 278 443.136 279 440.736 279H405.836V412.2C405.836 416.5 402.336 420 398.036 420H258.436ZM174.236 393C170.936 393 168.236 390.3 168.236 387C168.236 383.7 170.936 381 174.236 381C177.536 381 180.236 383.7 180.236 387C180.236 390.3 177.536 393 174.236 393ZM218.336 348C215.036 348 212.336 345.3 212.336 342C212.336 338.7 215.036 336 218.336 336C221.636 336 224.336 338.7 224.336 342C224.336 345.3 221.636 348 218.336 348ZM166.236 341C162.936 341 160.236 338.3 160.236 335C160.236 331.7 162.936 329 166.236 329C169.536 329 172.236 331.7 172.236 335C172.236 338.3 169.536 341 166.236 341ZM161.236 291C157.936 291 155.236 288.3 155.236 285C155.236 281.7 157.936 279 161.236 279C164.536 279 167.236 281.7 167.236 285C167.236 288.3 164.536 291 161.236 291ZM286.436 298C283.136 298 280.436 295.3 280.436 292C280.436 288.7 283.136 286 286.436 286C289.736 286 292.436 288.7 292.436 292C292.436 295.3 289.736 298 286.436 298ZM354.536 344C351.236 344 348.536 341.3 348.536 338C348.536 334.7 351.236 332 354.536 332C357.836 332 360.536 334.7 360.536 338C360.536 341.3 357.836 344 354.536 344ZM328.536 392C325.236 392 322.536 389.3 322.536 386C322.536 382.7 325.236 380 328.536 380C331.836 380 334.536 382.7 334.536 386C334.536 389.3 331.836 392 328.536 392ZM356.536 249C353.236 249 350.536 246.3 350.536 243C350.536 239.7 353.236 237 356.536 237C359.836 237 362.536 239.7 362.536 243C362.536 246.3 359.836 249 356.536 249ZM323.536 210C320.236 210 317.536 207.3 317.536 204C317.536 200.7 320.236 198 323.536 198C326.836 198 329.536 200.7 329.536 204C329.536 207.3 326.836 210 323.536 210ZM283.436 186C280.136 186 277.436 183.3 277.436 180C277.436 176.7 280.136 174 283.436 174C286.736 174 289.436 176.7 289.436 180C289.436 183.3 286.736 186 283.436 186ZM219.336 186C216.036 186 213.336 183.3 213.336 180C213.336 176.7 216.036 174 219.336 174C222.636 174 225.336 176.7 225.336 180C225.336 183.3 222.636 186 219.336 186ZM167.236 209C163.936 209 161.236 206.3 161.236 203C161.236 199.7 163.936 197 167.236 197C170.536 197 173.236 199.7 173.236 203C173.236 206.3 170.536 209 167.236 209ZM205.236 246C201.936 246 199.236 243.3 199.236 240C199.236 236.7 201.936 234 205.236 234C208.536 234 211.236 236.7 211.236 240C211.336 243.3 208.636 246 205.236 246ZM290.436 249C287.136 249 284.436 246.3 284.436 243C284.436 239.7 287.136 237 290.436 237C293.736 237 296.436 239.7 296.436 243C296.436 246.3 293.736 249 290.436 249Z" fill="white"/>
</g>
<path d="M767.791 345.556H742.462V257.219H646.133V345.556H620.936V154.444H646.133V236.612H742.462V154.444H767.791V345.556Z" fill="white"/>
<path d="M802.307 273.233C802.307 259.319 805.019 246.806 810.444 235.693C815.956 224.58 823.568 216.004 833.279 209.966C843.079 203.928 854.234 200.909 866.745 200.909C886.081 200.909 901.698 207.604 913.597 220.992C925.584 234.38 931.577 252.188 931.577 274.414V276.12C931.577 289.946 928.909 302.372 923.571 313.398C918.322 324.336 910.754 332.868 900.867 338.993C891.068 345.119 879.782 348.181 867.008 348.181C847.759 348.181 832.142 341.487 820.156 328.099C808.257 314.71 802.307 296.991 802.307 274.939V273.233ZM826.717 276.12C826.717 291.871 830.348 304.516 837.61 314.054C844.96 323.592 854.759 328.361 867.008 328.361C879.344 328.361 889.143 323.548 896.405 313.923C903.667 304.21 907.298 290.646 907.298 273.233C907.298 257.657 903.579 245.056 896.143 235.43C888.793 225.717 878.994 220.861 866.745 220.861C854.759 220.861 845.091 225.63 837.742 235.168C830.392 244.706 826.717 258.357 826.717 276.12Z" fill="white"/>
<path d="M984.86 203.535L985.516 219.286C995.928 207.035 1009.97 200.909 1027.64 200.909C1047.5 200.909 1061.02 208.522 1068.2 223.748C1072.92 216.923 1079.05 211.41 1086.57 207.21C1094.18 203.01 1103.15 200.909 1113.47 200.909C1144.62 200.909 1160.46 217.404 1160.98 250.394V345.556H1136.7V251.838C1136.7 241.687 1134.38 234.118 1129.75 229.13C1125.11 224.055 1117.32 221.517 1106.39 221.517C1097.37 221.517 1089.89 224.23 1083.94 229.655C1078 234.993 1074.54 242.212 1073.58 251.313V345.556H1049.17V252.494C1049.17 231.843 1039.06 221.517 1018.85 221.517C1002.93 221.517 992.034 228.299 986.172 241.862V345.556H961.893V203.535H984.86Z" fill="white"/>
<path d="M1256.65 348.181C1237.41 348.181 1221.75 341.881 1209.67 329.28C1197.6 316.592 1191.56 299.659 1191.56 278.483V274.02C1191.56 259.932 1194.23 247.375 1199.57 236.349C1204.99 225.236 1212.51 216.573 1222.14 210.36C1231.85 204.06 1242.35 200.909 1253.64 200.909C1272.1 200.909 1286.45 206.991 1296.68 219.154C1306.92 231.318 1312.04 248.731 1312.04 271.395V281.502H1215.84C1216.19 295.503 1220.26 306.835 1228.04 315.498C1235.92 324.074 1245.89 328.361 1257.97 328.361C1266.54 328.361 1273.8 326.611 1279.75 323.111C1285.7 319.611 1290.91 314.973 1295.37 309.198L1310.2 320.748C1298.3 339.037 1280.45 348.181 1256.65 348.181ZM1253.64 220.861C1243.84 220.861 1235.61 224.448 1228.96 231.624C1222.31 238.712 1218.2 248.687 1216.63 261.551H1287.76V259.713C1287.06 247.375 1283.73 237.837 1277.78 231.099C1271.83 224.273 1263.79 220.861 1253.64 220.861Z" fill="white"/>
<path d="M1516.24 295.678H1436.19L1418.21 345.556H1392.22L1465.19 154.444H1487.24L1560.34 345.556H1534.49L1516.24 295.678ZM1443.8 274.939H1508.76L1476.22 185.552L1443.8 274.939Z" fill="white"/>
<path d="M1664.94 307.885C1664.94 301.322 1662.44 296.247 1657.46 292.659C1652.56 288.984 1643.94 285.834 1631.6 283.208C1619.35 280.583 1609.6 277.433 1602.34 273.758C1595.16 270.083 1589.83 265.707 1586.33 260.632C1582.91 255.557 1581.21 249.519 1581.21 242.518C1581.21 230.88 1586.11 221.036 1595.91 212.985C1605.79 204.935 1618.39 200.909 1633.7 200.909C1649.8 200.909 1662.84 205.066 1672.81 213.379C1682.87 221.692 1687.9 232.324 1687.9 245.275H1663.49C1663.49 238.624 1660.65 232.893 1654.96 228.08C1649.36 223.267 1642.28 220.861 1633.7 220.861C1624.87 220.861 1617.95 222.786 1612.97 226.636C1607.98 230.486 1605.49 235.518 1605.49 241.731C1605.49 247.594 1607.81 252.013 1612.44 254.988C1617.08 257.963 1625.43 260.807 1637.51 263.52C1649.67 266.232 1659.51 269.47 1667.04 273.233C1674.56 276.995 1680.12 281.546 1683.7 286.884C1687.38 292.134 1689.22 298.566 1689.22 306.179C1689.22 318.867 1684.14 329.061 1673.99 336.762C1663.84 344.375 1650.68 348.181 1634.49 348.181C1623.12 348.181 1613.05 346.169 1604.31 342.143C1595.56 338.118 1588.69 332.518 1583.7 325.342C1578.8 318.079 1576.35 310.248 1576.35 301.847H1600.63C1601.07 309.985 1604.31 316.461 1610.34 321.273C1616.47 325.999 1624.52 328.361 1634.49 328.361C1643.68 328.361 1651.03 326.524 1656.54 322.848C1662.14 319.086 1664.94 314.098 1664.94 307.885Z" fill="white"/>
<path d="M1803.53 307.885C1803.53 301.322 1801.03 296.247 1796.04 292.659C1791.15 288.984 1782.53 285.834 1770.19 283.208C1757.94 280.583 1748.19 277.433 1740.92 273.758C1733.75 270.083 1728.41 265.707 1724.91 260.632C1721.5 255.557 1719.8 249.519 1719.8 242.518C1719.8 230.88 1724.69 221.036 1734.49 212.985C1744.38 204.935 1756.98 200.909 1772.29 200.909C1788.39 200.909 1801.43 205.066 1811.4 213.379C1821.46 221.692 1826.49 232.324 1826.49 245.275H1802.08C1802.08 238.624 1799.24 232.893 1793.55 228.08C1787.95 223.267 1780.87 220.861 1772.29 220.861C1763.45 220.861 1756.54 222.786 1751.56 226.636C1746.57 230.486 1744.07 235.518 1744.07 241.731C1744.07 247.594 1746.39 252.013 1751.03 254.988C1755.67 257.963 1764.02 260.807 1776.1 263.52C1788.26 266.232 1798.1 269.47 1805.63 273.233C1813.15 276.995 1818.71 281.546 1822.29 286.884C1825.97 292.134 1827.8 298.566 1827.8 306.179C1827.8 318.867 1822.73 329.061 1812.58 336.762C1802.43 344.375 1789.26 348.181 1773.08 348.181C1761.7 348.181 1751.64 346.169 1742.89 342.143C1734.14 338.118 1727.28 332.518 1722.29 325.342C1717.39 318.079 1714.94 310.248 1714.94 301.847H1739.22C1739.66 309.985 1742.89 316.461 1748.93 321.273C1755.05 325.999 1763.1 328.361 1773.08 328.361C1782.26 328.361 1789.61 326.524 1795.13 322.848C1800.73 319.086 1803.53 314.098 1803.53 307.885Z" fill="white"/>
<path d="M1885.81 345.556H1861.53V203.535H1885.81V345.556ZM1859.56 165.863C1859.56 161.926 1860.75 158.6 1863.11 155.888C1865.56 153.175 1869.14 151.819 1873.87 151.819C1878.59 151.819 1882.18 153.175 1884.63 155.888C1887.08 158.6 1888.31 161.926 1888.31 165.863C1888.31 169.801 1887.08 173.083 1884.63 175.708C1882.18 178.333 1878.59 179.646 1873.87 179.646C1869.14 179.646 1865.56 178.333 1863.11 175.708C1860.75 173.083 1859.56 169.801 1859.56 165.863Z" fill="white"/>
<path d="M2007.47 307.885C2007.47 301.322 2004.98 296.247 1999.99 292.659C1995.09 288.984 1986.47 285.834 1974.14 283.208C1961.89 280.583 1952.13 277.433 1944.87 273.758C1937.7 270.083 1932.36 265.707 1928.86 260.632C1925.45 255.557 1923.74 249.519 1923.74 242.518C1923.74 230.88 1928.64 221.036 1938.44 212.985C1948.33 204.935 1960.92 200.909 1976.24 200.909C1992.33 200.909 2005.37 205.066 2015.34 213.379C2025.41 221.692 2030.44 232.324 2030.44 245.275H2006.03C2006.03 238.624 2003.18 232.893 1997.5 228.08C1991.9 223.267 1984.81 220.861 1976.24 220.861C1967.4 220.861 1960.49 222.786 1955.5 226.636C1950.51 230.486 1948.02 235.518 1948.02 241.731C1948.02 247.594 1950.34 252.013 1954.97 254.988C1959.61 257.963 1967.97 260.807 1980.04 263.52C1992.2 266.232 2002.05 269.47 2009.57 273.233C2017.09 276.995 2022.65 281.546 2026.24 286.884C2029.91 292.134 2031.75 298.566 2031.75 306.179C2031.75 318.867 2026.67 329.061 2016.53 336.762C2006.38 344.375 1993.21 348.181 1977.02 348.181C1965.65 348.181 1955.59 346.169 1946.84 342.143C1938.09 338.118 1931.22 332.518 1926.23 325.342C1921.33 318.079 1918.88 310.248 1918.88 301.847H1943.16C1943.6 309.985 1946.84 316.461 1952.87 321.273C1959 325.999 1967.05 328.361 1977.02 328.361C1986.21 328.361 1993.56 326.524 1999.07 322.848C2004.67 319.086 2007.47 314.098 2007.47 307.885Z" fill="white"/>
<path d="M2096.32 169.145V203.535H2122.83V222.304H2096.32V310.379C2096.32 316.067 2097.5 320.355 2099.86 323.242C2102.22 326.042 2106.25 327.442 2111.94 327.442C2114.74 327.442 2118.59 326.917 2123.48 325.867V345.556C2117.1 347.306 2110.89 348.181 2104.85 348.181C2094 348.181 2085.82 344.9 2080.31 338.337C2074.8 331.774 2072.04 322.455 2072.04 310.379V222.304H2046.19V203.535H2072.04V169.145H2096.32Z" fill="white"/>
<path d="M2238.97 345.556C2237.57 342.756 2236.44 337.768 2235.56 330.593C2224.28 342.318 2210.8 348.181 2195.14 348.181C2181.14 348.181 2169.64 344.244 2160.63 336.368C2151.7 328.405 2147.24 318.342 2147.24 306.179C2147.24 291.39 2152.84 279.927 2164.04 271.789C2175.32 263.563 2191.16 259.451 2211.55 259.451H2235.17V248.294C2235.17 239.806 2232.63 233.068 2227.56 228.08C2222.48 223.005 2215 220.467 2205.12 220.467C2196.45 220.467 2189.19 222.655 2183.33 227.03C2177.47 231.405 2174.54 236.699 2174.54 242.912H2150.13C2150.13 235.824 2152.62 228.999 2157.61 222.436C2162.68 215.785 2169.51 210.535 2178.08 206.685C2186.74 202.834 2196.23 200.909 2206.56 200.909C2222.92 200.909 2235.74 205.022 2245.01 213.248C2254.29 221.386 2259.1 232.63 2259.45 246.981V312.348C2259.45 325.386 2261.11 335.756 2264.44 343.456V345.556H2238.97ZM2198.68 327.049C2206.3 327.049 2213.51 325.08 2220.34 321.142C2227.16 317.204 2232.11 312.085 2235.17 305.785V276.645H2216.14C2186.39 276.645 2171.52 285.352 2171.52 302.766C2171.52 310.379 2174.06 316.329 2179.13 320.617C2184.2 324.905 2190.72 327.049 2198.68 327.049Z" fill="white"/>
<path d="M2320.47 203.535L2321.26 221.386C2332.11 207.735 2346.28 200.909 2363.78 200.909C2393.79 200.909 2408.93 217.842 2409.19 251.706V345.556H2384.91V251.575C2384.82 241.337 2382.46 233.768 2377.83 228.867C2373.28 223.967 2366.14 221.517 2356.43 221.517C2348.56 221.517 2341.65 223.617 2335.7 227.817C2329.75 232.018 2325.11 237.53 2321.79 244.356V345.556H2297.51V203.535H2320.47Z" fill="white"/>
<path d="M2478.75 169.145V203.535H2505.26V222.304H2478.75V310.379C2478.75 316.067 2479.93 320.355 2482.29 323.242C2484.65 326.042 2488.68 327.442 2494.36 327.442C2497.16 327.442 2501.01 326.917 2505.91 325.867V345.556C2499.53 347.306 2493.32 348.181 2487.28 348.181C2476.43 348.181 2468.25 344.9 2462.74 338.337C2457.22 331.774 2454.47 322.455 2454.47 310.379V222.304H2428.61V203.535H2454.47V169.145H2478.75Z" fill="white"/>
<defs>
<clipPath id="clip0_1207_56">
<rect width="500" height="500" fill="white" transform="translate(0.935547)"/>
</clipPath>
</defs>
</svg>
